<svg width="28" height="28" fill="none" xmlns="http://www.w3.org/2000/svg"><path d="M15.47 3.5C9.532 3.337 4.667 8.108 4.667 14H2.578a.577.577 0 0 0-.408.992l3.255 3.266a.577.577 0 0 0 .828 0l3.255-3.266a.583.583 0 0 0-.42-.992H7c0-4.55 3.71-8.225 8.283-8.167 4.34.059 7.992 3.71 8.05 8.05.059 4.562-3.616 8.284-8.166 8.284a8.044 8.044 0 0 1-4.994-1.727 1.16 1.16 0 0 0-1.54.093c-.49.49-.455 1.319.094 1.739a10.335 10.335 0 0 0 6.44 2.228c5.891 0 10.663-4.865 10.5-10.803C25.515 8.225 20.942 3.652 15.47 3.5Zm-.595 5.833a.881.881 0 0 0-.875.875v4.294c0 .408.222.793.572 1.003l3.64 2.158a.884.884 0 0 0 1.201-.303.884.884 0 0 0-.303-1.202l-3.36-1.995v-3.966a.88.88 0 0 0-.875-.864Z" fill="#00B0D7"/></svg>