<svg aria-hidden="true" style="width:0;height:0;position:absolute;overflow:hidden" xmlns="http://www.w3.org/2000/svg"><defs><symbol id="icon-moon-solid" viewBox="0 0 24 32"><path d="M13.969 2C6.25 2 0 8.269 0 16s6.25 14 13.969 14a13.92 13.92 0 0 0 9.738-3.962.998.998 0 0 0-.869-1.7c-.613.106-1.238.163-1.881.163-6.056 0-10.969-4.925-10.969-11 0-4.113 2.25-7.694 5.581-9.581a.998.998 0 0 0-.413-1.862c-.394-.031-.787-.05-1.188-.05z"/></symbol><symbol id="icon-sun-day" viewBox="0 0 32 32"><path d="M23.481 1.231a1.502 1.502 0 0 0-2.325-.963L16 3.818 10.844.262a1.502 1.502 0 0 0-2.325.963L7.388 7.381 1.232 8.518a1.502 1.502 0 0 0-.963 2.325l3.55 5.156-3.556 5.156c-.287.419-.344.956-.15 1.425s.613.813 1.113.9l6.156 1.131 1.131 6.156a1.502 1.502 0 0 0 2.325.963L16 28.18l5.156 3.556a1.502 1.502 0 0 0 2.325-.963l1.131-6.156 6.156-1.131a1.502 1.502 0 0 0 .963-2.325l-3.55-5.162 3.556-5.156a1.502 1.502 0 0 0-.963-2.325l-6.156-1.131-1.137-6.156zM16.85 6.875l4.1-2.825.9 4.894a1.504 1.504 0 0 0 1.206 1.206l4.894.9-2.825 4.1a1.486 1.486 0 0 0 0 1.7l2.825 4.1-4.894.9a1.504 1.504 0 0 0-1.206 1.206l-.9 4.894-4.1-2.825a1.486 1.486 0 0 0-1.7 0l-4.1 2.825-.9-4.894a1.504 1.504 0 0 0-1.206-1.206l-4.894-.9 2.825-4.1a1.486 1.486 0 0 0 0-1.7l-2.825-4.1 4.894-.9a1.504 1.504 0 0 0 1.206-1.206l.9-4.894 4.1 2.825a1.486 1.486 0 0 0 1.7 0zM16 23a7 7 0 1 0 0-14 7 7 0 1 0 0 14zm-4-7a4 4 0 0 1 8 0 4 4 0 0 1-8 0z"/></symbol><symbol id="icon-sun-night" viewBox="0 0 32 32"><path d="M22.594.075c.313.131.538.412.6.744l1.244 6.744 6.744 1.238c.331.063.613.287.744.6s.094.669-.1.95l-3.894 5.65 3.894 5.644c.194.281.231.637.1.95s-.413.538-.744.6l-6.744 1.244-1.244 6.744c-.063.331-.288.613-.6.744s-.669.094-.95-.1L16 27.933l-5.644 3.894c-.281.194-.637.231-.95.1s-.537-.413-.6-.744l-1.244-6.744-6.744-1.244c-.331-.063-.613-.288-.744-.6s-.094-.669.1-.95l3.894-5.644-3.894-5.644c-.194-.281-.231-.637-.1-.95s.412-.537.744-.6l6.744-1.244L8.806.819c.063-.331.287-.613.6-.744s.669-.094.95.1L16 4.069 21.644.175a.993.993 0 0 1 .95-.1zM10 16a6 6 0 1 1 12 0 6 6 0 1 1-12 0zm14 0a8 8 0 0 0-16 0 8 8 0 0 0 16 0z"/></symbol></defs></svg>