<svg aria-hidden="true" style="position: absolute; width: 0; height: 0; overflow: hidden;" version="1.1" xmlns="http://www.w3.org/2000/svg" xmlns:xlink="http://www.w3.org/1999/xlink">
<defs>
<symbol id="icon-moon-solid" viewBox="0 0 24 32">
<path d="M13.969 2c-7.719 0-13.969 6.269-13.969 14s6.25 14 13.969 14c3.788 0 7.219-1.512 9.738-3.962 0.313-0.306 0.394-0.781 0.194-1.169s-0.631-0.606-1.063-0.531c-0.613 0.106-1.238 0.163-1.881 0.163-6.056 0-10.969-4.925-10.969-11 0-4.113 2.25-7.694 5.581-9.581 0.381-0.219 0.575-0.656 0.481-1.081s-0.456-0.744-0.894-0.781c-0.394-0.031-0.787-0.050-1.188-0.050z"></path>
</symbol>
<symbol id="icon-sun-day" viewBox="0 0 32 32">
<path d="M23.481 1.231c-0.094-0.5-0.431-0.919-0.9-1.113s-1.006-0.138-1.425 0.15l-5.156 3.55-5.156-3.556c-0.419-0.287-0.956-0.344-1.425-0.15s-0.806 0.613-0.9 1.113l-1.131 6.156-6.156 1.137c-0.5 0.094-0.919 0.431-1.113 0.9s-0.138 1.006 0.15 1.425l3.55 5.156-3.556 5.156c-0.287 0.419-0.344 0.956-0.15 1.425s0.613 0.813 1.113 0.9l6.156 1.131 1.131 6.156c0.094 0.5 0.431 0.919 0.9 1.113s1.006 0.138 1.425-0.15l5.162-3.55 5.156 3.556c0.419 0.287 0.956 0.344 1.425 0.15s0.806-0.613 0.9-1.113l1.131-6.156 6.156-1.131c0.5-0.094 0.919-0.431 1.113-0.9s0.138-1.006-0.15-1.425l-3.55-5.162 3.556-5.156c0.287-0.419 0.344-0.956 0.15-1.425s-0.613-0.806-1.113-0.9l-6.156-1.131-1.137-6.156zM16.85 6.875l4.1-2.825 0.9 4.894c0.113 0.613 0.594 1.094 1.206 1.206l4.894 0.9-2.825 4.1c-0.356 0.512-0.356 1.187 0 1.7l2.825 4.1-4.894 0.9c-0.613 0.113-1.094 0.594-1.206 1.206l-0.9 4.894-4.1-2.825c-0.512-0.356-1.188-0.356-1.7 0l-4.1 2.825-0.9-4.894c-0.113-0.613-0.594-1.094-1.206-1.206l-4.894-0.9 2.825-4.1c0.356-0.512 0.356-1.188 0-1.7l-2.825-4.1 4.894-0.9c0.613-0.113 1.094-0.594 1.206-1.206l0.9-4.894 4.1 2.825c0.512 0.356 1.188 0.356 1.7 0zM16 23c3.866 0 7-3.134 7-7s-3.134-7-7-7v0c-3.866 0-7 3.134-7 7s3.134 7 7 7v0zM12 16c0-2.209 1.791-4 4-4s4 1.791 4 4v0c0 2.209-1.791 4-4 4s-4-1.791-4-4v0z"></path>
</symbol>
<symbol id="icon-sun-night" viewBox="0 0 32 32">
<path d="M22.594 0.075c0.313 0.131 0.538 0.412 0.6 0.744l1.244 6.744 6.744 1.238c0.331 0.063 0.613 0.287 0.744 0.6s0.094 0.669-0.1 0.95l-3.894 5.65 3.894 5.644c0.194 0.281 0.231 0.637 0.1 0.95s-0.413 0.538-0.744 0.6l-6.744 1.244-1.244 6.744c-0.063 0.331-0.288 0.613-0.6 0.744s-0.669 0.094-0.95-0.1l-5.644-3.894-5.644 3.894c-0.281 0.194-0.637 0.231-0.95 0.1s-0.537-0.413-0.6-0.744l-1.244-6.744-6.744-1.244c-0.331-0.063-0.613-0.288-0.744-0.6s-0.094-0.669 0.1-0.95l3.894-5.644-3.894-5.644c-0.194-0.281-0.231-0.637-0.1-0.95s0.412-0.537 0.744-0.6l6.744-1.244 1.244-6.744c0.063-0.331 0.287-0.613 0.6-0.744s0.669-0.094 0.95 0.1l5.644 3.894 5.644-3.894c0.281-0.194 0.637-0.231 0.95-0.1zM10 16c0-3.314 2.686-6 6-6s6 2.686 6 6v0c0 3.314-2.686 6-6 6s-6-2.686-6-6v0zM24 16c0-4.418-3.582-8-8-8s-8 3.582-8 8v0c0 4.418 3.582 8 8 8s8-3.582 8-8v0z"></path>
</symbol>
</defs>
</svg>
